# xmcd
#
# Track frame offsets: 
#        150
#        24220
#        41304
#        50035
#        62971
#        81467
#        93676
#        113432
#        129827
#        145527
#        156016
#        171235
#        181767
#        199212
#        214486
#        229748
#        238886
#        250805
#        262795
#        273489
#        296988
#        311301
#
# Disc length: 4372 seconds
#
# Revision: 0
# Processed by: cddbd v1.5.2PL0 Copyright (c) Steve Scherf et al.
# Submitted via: ExactAudioCopy v1.0b3
#
DISCID=39111216
DTITLE=Various Artist - Oh Happy Day
DYEAR=2010
DGENRE=Gospel
TTITLE0=The Cumberland Boys - Just A Closer Walk With Thee
TTITLE1=Mahalia Jackson - A City Called Heaven
TTITLE2=Golden Gate Quartet - Great Day The Righteous Marching
TTITLE3=The Croydon Seventh Day Adventist Gospel Choir - Come And Go W
TTITLE3=ith Me
TTITLE4=Cissy Houston - Amazing Grace
TTITLE5=The Blackstone Family Singers - Deep River
TTITLE6=Sister Rosetta Tharpe - God Lead Us Along
TTITLE7=Mahalia Jackson - My God Is Real
TTITLE8=The Johnny Thompson Singers - He Leadeth Me
TTITLE9=The Jordanaires - Cannan's Land
TTITLE10=Mahalia Jackson - I'm On My Way
TTITLE11=Golden Gate Quartet - If I Had My Way
TTITLE12=Cissy Houston - Go Where I Send Thee
TTITLE13=Blind Boys Of Alabama - Walk In Jerusalem
TTITLE14=Kate Smith - Nearer, My God, To Thee
TTITLE15=Golden Gate Quartet - Rock My Soul
TTITLE16=The Canaan Travelers - Walking In Jerusalem Just Like John
TTITLE17=Mahalia Jackson - Walk Over God's Heaven
TTITLE18=Golden Gate Quartet - Hide Me In Thy Bossom
TTITLE19=Cissy Houston - Without God
TTITLE20=The Johnny Thompson Singers - I'm Gonna Leave It In His Hands
TTITLE21=Harry Belafonte - Whe The Saints Go Marching In
EXTD=
EXTT0=
EXTT1=
EXTT2=
EXTT3=
EXTT4=
EXTT5=
EXTT6=
EXTT7=
EXTT8=
EXTT9=
EXTT10=
EXTT11=
EXTT12=
EXTT13=
EXTT14=
EXTT15=
EXTT16=
EXTT17=
EXTT18=
EXTT19=
EXTT20=
EXTT21=
PLAYORDER=
